<?xml version="1.0" encoding="utf-8"?>
<!-- Generator: Adobe Illustrator 25.0.1, SVG Export Plug-In . SVG Version: 6.00 Build 0)  -->
<svg version="1.1" xmlns="http://www.w3.org/2000/svg" xmlns:xlink="http://www.w3.org/1999/xlink" x="0px" y="0px"
	 viewBox="0 0 190.4 252.8" style="enable-background:new 0 0 190.4 252.8;" xml:space="preserve">
<style type="text/css">
	.st0{fill:#525252;}
	.st1{enable-background:new    ;}
	.st2{fill:#FFDA34;}
</style>
<g id="Layer_1">
	
		<image style="overflow:visible;enable-background:new    ;" width="1174" height="823" id="Layer_1-2" xlink:href="7B247A12.png"  transform="matrix(2.191217e-02 0.1988 -0.1988 2.191217e-02 164.1421 4.3404)">
	</image>
	<g>
		<g>
			<path class="st0" d="M57.5,169.1c9,3.3,18.1,1.4,27.5,1.6c8.8,0.2,17.6,1.6,26.5,1.8c9.7,0.2,19.4,0.5,29,0.7
				c7.5,0.2,19,2.2,21.7-7.4c0.8-2.9,0.9-6.8-0.8-9.4c-2.7-4.1-8.3-3.8-12.6-4.2c-9.8-0.9-19.6-1.6-29.4-2.1s-19.6-0.7-29.5-0.7
				c-5.2,0-10.5,0.1-15.7,0.2c-2.6,0.1-5.2,0.2-7.9,0.3c-1.8,0.1-4.6,0.7-6.2,0.1c1.3,1,2.6,2,3.9,3c-0.8-1.1-0.1-3.8,0.2-5
				c0.2-1,0.6-1.9,1-2.8c-0.5,1-0.3,1.3,0.7,0.8c4.5-0.7,9.1-0.3,13.7,0.3c8.9,1.1,17.5,2,26.5,1.4c8.9-0.6,17.8-1.6,26.8-2
				c4.4-0.2,8.8-0.3,13.2-0.4c1.7,0,5.5-0.8,7,0c1.3,0.7,1,0.8,1.3,2.9c0.9,5.3,9.7,6.6,11.9,1.6c1.2-2.8,1.9-5.1,2-8.1
				c-4.3,0.6-8.5,1.2-12.8,1.7c0.2,1.2,0.3,2.5,0.2,3.8c4.2,1.7,5.7,1.8,4.4,0.2c-0.5-1.4-2.2-2.5-3.5-3.1c-3-1.5-6.8-1.3-10.1-1.6
				c-8.8-0.8-17.6-1.3-26.4-1.6c-17.3-0.6-34.6-0.3-51.9,0.8c-8.3,0.5-8.4,13.5,0,13c21.8-1.4,43.7-1.5,65.6-0.1
				c2.6,0.2,5.2,0.3,7.8,0.5c2,0.2,6,1.3,7.8,0.7c1.2,0.3,1.3,0.1,0.3-0.7c-0.7-1-0.9-1.1-0.4-0.4c0.4,0.8,1,1.5,1.7,2.1
				c1.6,1.6,3.7,2.5,6,2.6c10.8,0.7,12.4-11.7,11-19.6c-1.3-7.5-12.4-5.3-12.8,1.7c-0.1,0.5-0.2,1.1-0.3,1.6c4,0.5,7.9,1,11.9,1.6
				c-1.3-7.3-5.7-11.8-13.2-12.4c-7.8-0.6-15.9,0.1-23.8,0.5c-8.7,0.5-17.3,1.5-25.9,2c-8.7,0.5-16.9-0.6-25.5-1.6
				c-6.6-0.7-16.6-1.7-22.3,2.6c-5.1,4-6.5,14.1-5.3,20c1.9,9.1,11.2,7.3,18.2,7c8.5-0.3,17-0.4,25.6-0.3c9.8,0.1,19.7,0.4,29.5,0.9
				c4.9,0.3,9.8,0.6,14.7,1c4.8,0.4,10.5,0.1,15.1,1.6c-1.3-1-2.6-2-3.9-3c-0.4-2.3-0.6-2.5-0.5-0.7c2.3-1.4,2.7-2.1,1.2-1.9
				c-1.1-0.7-5.1-0.1-6.5-0.1c-3.9-0.1-7.7-0.2-11.6-0.3c-8.7-0.2-17.3-0.4-26-0.6c-7.6-0.2-15.1-1.7-22.7-1.7
				c-7.8,0-15.6,1.7-23.1-1.1C53.1,153.7,49.7,166.3,57.5,169.1L57.5,169.1z"/>
		</g>
	</g>
	<g class="st1">
		<g>
			<path class="st2" d="M72.1,143.5c-3.9-3.1-8.9-5.9-13.6-2.4c-4.1,3.1-5.3,8.8-5,13.6c0.3,4.7,2.1,9.4,6.9,11.1
				c4.6,1.6,9.1-0.4,11.7-4.3c2.2-3.2-3-6.2-5.2-3c-1.1,1.7-3.3,2.5-5.2,1.4c-2.1-1.2-2.3-4.3-2.3-6.4c0-2,0.2-4,1.3-5.7
				c2.2-3.3,4.6-2,7.1,0C70.9,150.1,75.2,145.9,72.1,143.5L72.1,143.5z"/>
		</g>
	</g>
	<g class="st1">
		<g>
			<path class="st2" d="M77.9,138.1c-2.3,8.6-0.9,19-0.9,27.9c0,3.9,6,3.9,6,0c0-4.4,0-8.7,0-13.1c0-4.3-0.5-9,0.7-13.2
				C84.7,136,78.9,134.4,77.9,138.1L77.9,138.1z"/>
		</g>
	</g>
	<g class="st1">
		<g>
			<path class="st2" d="M81.9,156.9c2-0.6,3.7-1.1,5.8-1c2.1,0,4.3,0.1,6.4,0.1c3.9,0.1,3.9-5.9,0-6c-2.4-0.1-4.9-0.2-7.3-0.2
				c-2.3,0-4.3,0.6-6.5,1.3C76.6,152.2,78.2,158,81.9,156.9L81.9,156.9z"/>
		</g>
	</g>
	<g class="st1">
		<g>
			<path class="st2" d="M92.8,139.1c-2.4,8.1,0.5,16.9,0.3,25.2c-0.1,3.9,5.9,3.9,6,0c0.2-7.6-2.7-16.2-0.6-23.6
				C99.7,136.9,93.9,135.4,92.8,139.1L92.8,139.1z"/>
		</g>
	</g>
	<g class="st1">
		<g>
			<path class="st2" d="M104,142c-2.8,4.6-3.5,12-0.8,16.8c3.1,5.5,9.2,6.1,14.4,3.2c4.4-2.4,6.2-10.5,4.5-15
				c-2.2-5.9-8.4-7.8-14-6.7c-3.8,0.7-2.2,6.5,1.6,5.8c2.9-0.6,6.8,0.7,7,4.2c0.1,2.5-0.7,6.1-3.1,7c-7.2,2.8-6.6-8.5-4.3-12.3
				C111.2,141.7,106,138.7,104,142L104,142z"/>
		</g>
	</g>
	<g class="st1">
		<g>
			<path class="st2" d="M131.9,165.6c-0.4-4.1-0.8-8.1-1-12.2c-0.2-3.5-1-8.5-0.2-12c-0.7,0.7-1.4,1.4-2.1,2.1
				c4.1-1.4,9.9,6.3,3,6.7c-3.8,0.2-3.9,6.2,0,6c4.7-0.3,9.2-2.9,9.8-8c0.7-5.4-3.5-8.6-8.2-10.1c-4.3-1.4-8.2-1.2-8.5,3.9
				c-0.5,7.8,0.4,15.8,1.2,23.5C126.3,169.4,132.3,169.4,131.9,165.6L131.9,165.6z"/>
		</g>
	</g>
	<g class="st1">
		<g>
			<path class="st2" d="M142.1,140.5c0.4,2.7,2.1,4.5,3.6,6.7c1.7,2.4,3.2,4.9,4.7,7.4c2,3.3,7.2,0.3,5.2-3
				c-1.3-2.1-2.6-4.2-3.9-6.2c-0.7-1-1.4-2-2.1-3c-0.2-0.3-1.5-2.3-1.4-1.7c-0.2-1.6-1.2-3-3-3C143.6,137.5,141.9,138.9,142.1,140.5
				L142.1,140.5z"/>
		</g>
	</g>
	<g class="st1">
		<g>
			<path class="st2" d="M144.1,169.4c8.2-8.2,18.5-16.9,19.2-29.3c0.2-3.9-5.8-3.8-6,0c-0.6,10.4-10.6,18.2-17.4,25
				C137.1,167.9,141.3,172.1,144.1,169.4L144.1,169.4z"/>
		</g>
	</g>
</g>
<g id="Layer_2">
</g>
</svg>
