<?xml version="1.0" encoding="UTF-8"?><svg id="Layer_1" xmlns="http://www.w3.org/2000/svg" viewBox="0 0 162.04 162.92"><defs><style>.cls-1{fill:#ffe2c2;opacity:.19;}.cls-1,.cls-2,.cls-3,.cls-4{stroke-width:0px;}.cls-2{fill:#e27600;}.cls-3{fill:#a55404;}.cls-4{fill:#fff;}</style></defs><path class="cls-3" d="m7.16,85.38c0-14.24-.21-28.48.07-42.71.22-11.63,4.56-21.47,14.36-28.38,5.05-3.56,10.75-5.37,16.86-5.89,2.88-.25,5.77-.4,8.66-.4,25.88-.03,51.76-.06,77.64,0,7.3.02,14.43,1.14,20.82,5.03,8.87,5.41,14.12,13.32,15.68,23.56.52,3.44.74,6.95.75,10.43.06,26.18.06,52.36.01,78.54-.02,8.01-1.38,15.74-6.07,22.51-6.26,9.04-15.1,13.56-25.9,14.47-2.94.25-5.89.33-8.84.33-25.52.02-51.03.05-76.55-.01-7.3-.02-14.44-1.07-20.86-4.92-8.98-5.38-14.29-13.3-15.9-23.61-.54-3.43-.73-6.95-.75-10.43-.09-12.85-.03-25.7-.03-38.55.02,0,.04,0,.06,0Zm81.29-13.97c-.51-.66-.89-1.13-1.25-1.61-6.33-8.37-12.68-16.73-18.97-25.13-.76-1.02-1.57-1.43-2.85-1.42-8.33.06-16.65.03-24.98.03-.56,0-1.13.08-1.99.14,12.05,15.75,23.9,31.24,35.75,46.73-10.92,12.48-21.7,24.8-32.78,37.46,3.48,0,6.43-.07,9.37.03,1.34.05,2.21-.41,3.09-1.41,8.03-9.25,16.11-18.45,24.18-27.66.42-.48.87-.95,1.37-1.5.46.57.84,1.02,1.2,1.5,7.04,9.2,14.09,18.39,21.1,27.61.76,1,1.52,1.48,2.83,1.47,8.08-.06,16.17-.03,24.25-.04.57,0,1.13-.07,2.06-.13-12.52-16.55-24.83-32.83-37.19-49.17,10.17-11.62,20.26-23.15,30.65-35.03-3.57,0-6.58.06-9.59-.03-1.22-.03-1.99.41-2.76,1.3-4.57,5.3-9.2,10.55-13.81,15.81-3.17,3.63-6.35,7.25-9.67,11.04Z"/><g id="V9ZxLS"><path class="cls-2" d="m.08,77.4c0-14.24-.21-28.48.07-42.71C.37,23.06,4.71,13.22,14.51,6.32,19.56,2.76,25.26.95,31.37.43c2.88-.25,5.77-.4,8.66-.4,25.88-.03,51.76-.06,77.64,0,7.3.02,14.43,1.14,20.82,5.03,8.87,5.41,14.12,13.32,15.68,23.56.52,3.44.74,6.95.75,10.43.06,26.18.06,52.36.01,78.54-.02,8.01-1.38,15.74-6.07,22.51-6.26,9.04-15.1,13.56-25.9,14.47-2.94.25-5.89.33-8.84.33-25.52.02-51.03.05-76.55-.01-7.3-.02-14.44-1.07-20.86-4.92-8.98-5.38-14.29-13.3-15.9-23.61-.54-3.43-.73-6.95-.75-10.43-.09-12.85-.03-25.7-.03-38.55.02,0,.04,0,.06,0Zm81.29-13.97c-.51-.66-.89-1.13-1.25-1.61-6.33-8.37-12.68-16.73-18.97-25.13-.76-1.02-1.57-1.43-2.85-1.42-8.33.06-16.65.03-24.98.03-.56,0-1.13.08-1.99.14,12.05,15.75,23.9,31.24,35.75,46.73-10.92,12.48-21.7,24.8-32.78,37.46,3.48,0,6.43-.07,9.37.03,1.34.05,2.21-.41,3.09-1.41,8.03-9.25,16.11-18.45,24.18-27.66.42-.48.87-.95,1.37-1.5.46.57.84,1.02,1.2,1.5,7.04,9.2,14.09,18.39,21.1,27.61.76,1,1.52,1.48,2.83,1.47,8.08-.06,16.17-.03,24.25-.04.57,0,1.13-.07,2.06-.13-12.52-16.55-24.83-32.83-37.19-49.17,10.17-11.62,20.26-23.15,30.65-35.03-3.57,0-6.58.06-9.59-.03-1.22-.03-1.99.41-2.76,1.3-4.57,5.3-9.2,10.55-13.81,15.81-3.17,3.63-6.35,7.25-9.67,11.04Z"/><path class="cls-4" d="m81.37,63.43c3.32-3.79,6.5-7.41,9.67-11.04,4.61-5.27,9.24-10.52,13.81-15.81.77-.89,1.55-1.34,2.76-1.3,3.01.09,6.02.03,9.59.03-10.4,11.88-20.48,23.41-30.65,35.03,12.36,16.34,24.67,32.61,37.19,49.17-.93.06-1.5.13-2.06.13-8.08,0-16.17-.03-24.25.04-1.31,0-2.07-.47-2.83-1.47-7.01-9.22-14.06-18.41-21.1-27.61-.36-.47-.75-.93-1.2-1.5-.51.55-.95,1.02-1.37,1.5-8.07,9.21-16.15,18.42-24.18,27.66-.87,1-1.74,1.46-3.09,1.41-2.94-.1-5.89-.03-9.37-.03,11.08-12.66,21.85-24.97,32.78-37.46-11.85-15.5-23.7-30.98-35.75-46.73.86-.06,1.43-.14,1.99-.14,8.33,0,16.65.02,24.98-.03,1.29,0,2.09.4,2.85,1.42,6.3,8.4,12.64,16.76,18.97,25.13.36.48.74.95,1.25,1.61Zm25.37,46.75c-.61-.86-.94-1.35-1.3-1.81-3.98-5.23-7.96-10.45-11.94-15.68-11.91-15.63-23.81-31.26-35.74-46.88-.45-.59-1.08-1.41-1.68-1.45-2.43-.17-4.87-.07-7.43-.07.16.42.19.61.3.74,16.4,21.45,32.81,42.89,49.24,64.32.29.38.84.78,1.29.79,2.28.08,4.56.04,7.26.04Z"/><path class="cls-2" d="m106.74,110.19c-2.7,0-4.98.04-7.26-.04-.44-.02-1-.41-1.29-.79-16.43-21.43-32.84-42.88-49.24-64.32-.1-.13-.13-.32-.3-.74,2.56,0,5-.1,7.43.07.59.04,1.23.86,1.68,1.45,11.93,15.62,23.83,31.25,35.74,46.88,3.98,5.23,7.96,10.45,11.94,15.68.35.47.68.95,1.3,1.81Z"/></g><path class="cls-1" d="m52.24,10.28l37.41-1.78S18.65,112.07,18.65,111.31s-2.04-41.73-2.04-41.73L52.24,10.28Z"/><path class="cls-1" d="m97.79,10.28l37.12.4S56.13,143.02,56.13,142.25c0-.38-22.53,3.41-30.21-1.41-7.84-4.92-6.51-16.81-6.51-16.81L97.79,10.28Z"/></svg>