<?xml version="1.0" encoding="UTF-8"?><svg id="Layer_1" xmlns="http://www.w3.org/2000/svg" viewBox="0 0 162.04 162.92"><defs><style>.cls-1{fill:#ffe2c2;opacity:.19;}.cls-1,.cls-2,.cls-3,.cls-4{stroke-width:0px;}.cls-2{fill:#e27600;}.cls-3{fill:#a55404;}.cls-4{fill:#fdfefe;}</style></defs><path class="cls-3" d="m7.16,85.38c0-14.24-.21-28.48.07-42.71.22-11.63,4.56-21.47,14.36-28.38,5.05-3.56,10.75-5.37,16.86-5.89,2.88-.25,5.77-.4,8.66-.4,25.88-.03,51.76-.06,77.64,0,7.3.02,14.43,1.14,20.82,5.03,8.87,5.41,14.12,13.32,15.68,23.56.52,3.44.74,6.95.75,10.43.06,26.18.06,52.36.01,78.54-.02,8.01-1.38,15.74-6.07,22.51-6.26,9.04-15.1,13.56-25.9,14.47-2.94.25-5.89.33-8.84.33-25.52.02-51.03.05-76.55-.01-7.3-.02-14.44-1.07-20.86-4.92-8.98-5.38-14.29-13.3-15.9-23.61-.54-3.43-.73-6.95-.75-10.43-.09-12.85-.03-25.7-.03-38.55.02,0,.04,0,.06,0Zm81.29-13.97c-.51-.66-.89-1.13-1.25-1.61-6.33-8.37-12.68-16.73-18.97-25.13-.76-1.02-1.57-1.43-2.85-1.42-8.33.06-16.65.03-24.98.03-.56,0-1.13.08-1.99.14,12.05,15.75,23.9,31.24,35.75,46.73-10.92,12.48-21.7,24.8-32.78,37.46,3.48,0,6.43-.07,9.37.03,1.34.05,2.21-.41,3.09-1.41,8.03-9.25,16.11-18.45,24.18-27.66.42-.48.87-.95,1.37-1.5.46.57.84,1.02,1.2,1.5,7.04,9.2,14.09,18.39,21.1,27.61.76,1,1.52,1.48,2.83,1.47,8.08-.06,16.17-.03,24.25-.04.57,0,1.13-.07,2.06-.13-12.52-16.55-24.83-32.83-37.19-49.17,10.17-11.62,20.26-23.15,30.65-35.03-3.57,0-6.58.06-9.59-.03-1.22-.03-1.99.41-2.76,1.3-4.57,5.3-9.2,10.55-13.81,15.81-3.17,3.63-6.35,7.25-9.67,11.04Z"/><path class="cls-2" d="m.08,77.4c0-14.24-.21-28.48.07-42.71C.37,23.06,4.71,13.22,14.51,6.32,19.56,2.76,25.26.95,31.37.43c2.88-.25,5.77-.4,8.66-.4,25.88-.03,51.76-.06,77.64,0,7.3.02,14.43,1.14,20.82,5.03,8.87,5.41,14.12,13.32,15.68,23.56.52,3.44.74,6.95.75,10.43.06,26.18.06,52.36.01,78.54-.02,8.01-1.38,15.74-6.07,22.51-6.26,9.04-15.1,13.56-25.9,14.47-2.94.25-5.89.33-8.84.33-25.52.02-51.03.05-76.55-.01-7.3-.02-14.44-1.07-20.86-4.92-8.98-5.38-14.29-13.3-15.9-23.61-.54-3.43-.73-6.95-.75-10.43-.09-12.85-.03-25.7-.03-38.55.02,0,.04,0,.06,0Z"/><g id="HvOFPA"><path class="cls-4" d="m125.71,43.66c-.19,2.83-.6,5.52-1,8.21-1.21,8.22-2.44,16.44-3.7,24.65-1.06,6.92-2.17,13.83-3.25,20.75-.61,3.91-.92,7.86-1.73,11.73-.34,1.61-.81,3.17-1.6,4.62-1.76,3.26-4.43,4.43-8.04,3.53-2.51-.63-4.75-1.86-6.82-3.34-7.98-5.7-16.27-10.93-24.4-16.4-.44-.3-.87-.6-1.31-.9-3.36-2.26-3.81-5.74-1.12-8.78,1.64-1.85,3.59-3.39,5.39-5.08,4.74-4.45,9.48-8.89,14.21-13.35,2.49-2.35,5.05-4.63,7.4-7.13.55-.59,1.09-1.19,1.58-1.83.61-.77.68-1.62.25-2.16-.48-.6-1.29-.75-2.22-.35-.89.38-1.65.96-2.46,1.48-6.5,4.2-12.75,8.76-19.19,13.04-5.06,3.36-9.89,7.05-15.03,10.29-2.42,1.52-4.93,2.84-7.8,3.34-1.51.27-3.01.26-4.5-.13-4.87-1.28-9.74-2.57-14.6-3.89-1.12-.3-2.2-.72-3.29-1.12-.47-.17-.93-.4-1.36-.65-2.28-1.31-2.52-3.28-.63-5.12.86-.84,1.89-1.42,2.98-1.89,9.44-4.12,18.88-8.25,28.33-12.35,8.11-3.51,16.21-7.07,24.39-10.42,9.88-4.05,19.7-8.25,29.68-12.06,1.49-.57,3.05-.9,4.65-.86,2.78.07,4.47,1.51,4.97,4.24.12.67.14,1.35.2,1.92Z"/></g><path class="cls-1" d="m48.01,10.28l37.41-1.78S14.42,112.07,14.42,111.31s-2.04-41.73-2.04-41.73L48.01,10.28Z"/><path class="cls-1" d="m93.56,10.28l37.12.4S51.9,143.02,51.9,142.25c0-.38-22.53,3.41-30.21-1.41-7.84-4.92-6.51-16.81-6.51-16.81L93.56,10.28Z"/></svg>