<?xml version="1.0" encoding="UTF-8"?><svg id="Layer_1" xmlns="http://www.w3.org/2000/svg" viewBox="0 0 774.81 496.69"><defs><style>.cls-1{fill:#ffe2c2;stroke-width:0px;}</style></defs><path class="cls-1" d="m744.43,35.57c-2.3,3.62-8.99,4.7-12.73,7.17-2.46,1.63-3.74,3.39-6.61,4.5-7.81,3.02-14.67,2.55-22.42.7-3.29-.79-8.87,0-11.44-2.51-1.7-1.66-1.15-5.31-2.46-7.38-3.63-5.76-9.18-6.7-11.71-13.85-2.36-6.67-6.51-16.1-6.35-23.4-4.68,2.9-9.54,5.83-14.35,8.43-5.91,3.19-7.97,5.15-13.16.93-3.42-2.78-5.22-6.8-7.49-10.17H58.33C26.12,0,0,26.12,0,58.33v380.03c0,32.22,26.12,58.33,58.33,58.33h658.14c32.22,0,58.33-26.12,58.33-58.33V58.33c0-3.31-.29-6.55-.82-9.71-4.26,3.13-6.41,5.13-13.75,5.33-12.21.33-10.83-9.24-15.8-18.38Z"/></svg>