<svg id="Layer_1" data-name="Layer 1" xmlns="http://www.w3.org/2000/svg" viewBox="0 0 162.05 162.91"><defs><style>.cls-1{fill:#a55404;}.cls-2{fill:#e27600;}.cls-3{fill:#fdfefe;}.cls-4{fill:#ffe2c2;}.cls-4,.cls-5{opacity:0.19;isolation:isolate;}.cls-5{fill:#fcd0a4;}.cls-6{fill:#ea8b34;}.cls-7{fill:#fff;}.cls-8{fill:#b26928;}</style></defs><path class="cls-1" d="M7.16,85.38c0-14.24-.21-28.48.07-42.71C7.45,31,11.79,21.2,21.59,14.29A33.63,33.63,0,0,1,38.45,8.4c2.88-.25,5.77-.4,8.66-.4q38.82,0,77.64,0c7.3,0,14.43,1.14,20.82,5a32.11,32.11,0,0,1,15.68,23.56A71.35,71.35,0,0,1,162,47q.09,39.27,0,78.54c0,8-1.38,15.74-6.07,22.51-6.26,9-15.1,13.56-25.9,14.47-2.94.25-5.89.33-8.84.33q-38.28,0-76.55,0c-7.3,0-14.44-1.07-20.86-4.92a32.12,32.12,0,0,1-15.9-23.61,69.89,69.89,0,0,1-.75-10.43c-.09-12.85,0-25.7,0-38.55h.06Zm81.29-14c-.51-.66-.89-1.13-1.25-1.61-6.33-8.37-12.68-16.73-19-25.13a3.15,3.15,0,0,0-2.85-1.42c-8.33.06-16.65,0-25,0-.56,0-1.13.08-2,.14L74.16,90.15,41.38,127.61c3.48,0,6.43-.07,9.37,0a3.57,3.57,0,0,0,3.09-1.41q12-13.87,24.18-27.66c.42-.48.87-.95,1.37-1.5.46.57.84,1,1.2,1.5q10.56,13.8,21.1,27.61a3.16,3.16,0,0,0,2.83,1.47c8.08-.06,16.17,0,24.25,0,.57,0,1.13-.07,2.06-.13L93.64,78.31l30.65-35c-3.57,0-6.58.06-9.59,0a3.22,3.22,0,0,0-2.76,1.3c-4.57,5.3-9.2,10.55-13.81,15.81C95,64,91.78,67.61,88.46,71.4Z" transform="translate(0 0)"/><path class="cls-2" d="M.08,77.4c0-14.24-.21-28.48.07-42.71C.37,23.06,4.71,13.22,14.51,6.32A33.63,33.63,0,0,1,31.37.43C34.25.18,37.14,0,40,0q38.82,0,77.64,0c7.3,0,14.43,1.14,20.82,5a32.11,32.11,0,0,1,15.68,23.56,71.35,71.35,0,0,1,.75,10.43q.09,39.27,0,78.54c0,8-1.38,15.74-6.07,22.51-6.26,9-15.1,13.56-25.9,14.47-2.94.25-5.89.33-8.84.33q-38.28,0-76.55,0c-7.3,0-14.44-1.07-20.86-4.92A32.12,32.12,0,0,1,.81,126.36a69.89,69.89,0,0,1-.75-10.43C0,103.08,0,90.23,0,77.38H.09Z" transform="translate(0 0)"/><g id="HvOFPA"><path class="cls-3" d="M125.71,43.66c-.19,2.83-.6,5.52-1,8.21Q122.9,64.2,121,76.52c-1.06,6.92-2.17,13.83-3.25,20.75-.61,3.91-.92,7.86-1.73,11.73a16.77,16.77,0,0,1-1.6,4.62c-1.76,3.26-4.43,4.43-8,3.53a20.27,20.27,0,0,1-6.82-3.34c-8-5.7-16.27-10.93-24.4-16.4l-1.31-.9c-3.36-2.26-3.81-5.74-1.12-8.78,1.64-1.85,3.59-3.39,5.39-5.08Q85.24,76,92.34,69.3c2.49-2.35,5-4.63,7.4-7.13.55-.59,1.09-1.19,1.58-1.83a1.74,1.74,0,0,0,.25-2.16,1.78,1.78,0,0,0-2.22-.35,17.07,17.07,0,0,0-2.46,1.48c-6.5,4.2-12.75,8.76-19.19,13-5.06,3.36-9.89,7.05-15,10.29A21.74,21.74,0,0,1,54.87,86a10.35,10.35,0,0,1-4.5-.13q-7.3-1.92-14.6-3.89c-1.12-.3-2.2-.72-3.29-1.12a8.49,8.49,0,0,1-1.36-.65c-2.28-1.31-2.52-3.28-.63-5.12a9.61,9.61,0,0,1,3-1.89Q47.63,67,61.8,60.83C69.91,57.32,78,53.76,86.19,50.41c9.88-4,19.7-8.25,29.68-12.06a12.14,12.14,0,0,1,4.65-.86,4.72,4.72,0,0,1,5,4.24c.12.67.14,1.35.2,1.92Z" transform="translate(0 0)"/></g><path class="cls-4" d="M48,10.28,85.42,8.5s-71,103.57-71,102.81-2-41.73-2-41.73Z" transform="translate(0 0)"/><path class="cls-4" d="M93.56,10.28l37.12.4S51.9,143,51.9,142.25c0-.38-22.53,3.41-30.21-1.41C13.85,135.92,15.18,124,15.18,124Z" transform="translate(0 0)"/><path class="cls-1" d="M7.15,85.39c0-14.24-.21-28.48.07-42.71.22-11.63,4.56-21.47,14.36-28.38A33.63,33.63,0,0,1,38.44,8.41c2.88-.25,5.77-.4,8.66-.4q38.82,0,77.64,0c7.3,0,14.43,1.14,20.82,5A32.11,32.11,0,0,1,161.24,36.6,71.35,71.35,0,0,1,162,47q.09,39.27,0,78.54c0,8-1.38,15.74-6.07,22.51-6.26,9-15.1,13.56-25.9,14.47-2.94.25-5.89.33-8.84.33q-38.28,0-76.55,0c-7.3,0-14.44-1.07-20.86-4.92a32.12,32.12,0,0,1-15.9-23.61,69.89,69.89,0,0,1-.75-10.43c-.09-12.85,0-25.7,0-38.55h.06Zm81.29-14c-.51-.66-.89-1.13-1.25-1.61-6.33-8.37-12.68-16.73-19-25.13a3.15,3.15,0,0,0-2.85-1.42c-8.33.06-16.65,0-25,0-.56,0-1.13.08-2,.14L74.15,90.16,41.37,127.62c3.48,0,6.43-.07,9.37,0a3.57,3.57,0,0,0,3.09-1.41q12-13.87,24.18-27.66c.42-.48.87-1,1.37-1.5.46.57.84,1,1.2,1.5q10.56,13.8,21.1,27.61a3.16,3.16,0,0,0,2.83,1.47c8.08-.06,16.17,0,24.25,0,.57,0,1.13-.07,2.06-.13L93.63,78.32l30.65-35c-3.57,0-6.58.06-9.59,0a3.22,3.22,0,0,0-2.76,1.3c-4.57,5.3-9.2,10.55-13.81,15.81-3.17,3.63-6.35,7.25-9.67,11Z" transform="translate(0 0)"/><path class="cls-2" d="M.07,77.41c0-14.24-.21-28.48.07-42.71C.36,23.07,4.7,13.23,14.5,6.33A33.63,33.63,0,0,1,31.36.44C34.24.19,37.13,0,40,0q38.82,0,77.64,0c7.3,0,14.43,1.14,20.82,5a32.11,32.11,0,0,1,15.68,23.56,71.35,71.35,0,0,1,.75,10.43q.09,39.27,0,78.54c0,8-1.38,15.74-6.07,22.51-6.26,9-15.1,13.56-25.9,14.47-2.94.25-5.89.33-8.84.33q-38.28,0-76.55,0c-7.3,0-14.44-1.07-20.86-4.92A32.12,32.12,0,0,1,.8,126.37a69.89,69.89,0,0,1-.75-10.43C0,103.09,0,90.24,0,77.39H.08Z" transform="translate(0 0)"/><g id="HvOFPA-2" data-name="HvOFPA"><path class="cls-3" d="M125.7,43.67c-.19,2.83-.6,5.52-1,8.21q-1.82,12.33-3.7,24.65c-1.06,6.92-2.17,13.83-3.25,20.75-.61,3.91-.92,7.86-1.73,11.73a16.77,16.77,0,0,1-1.6,4.62c-1.76,3.26-4.43,4.43-8,3.53a20.27,20.27,0,0,1-6.82-3.34c-8-5.7-16.27-10.93-24.4-16.4l-1.31-.9c-3.36-2.26-3.81-5.74-1.12-8.78,1.64-1.85,3.59-3.39,5.39-5.08Q85.23,76,92.33,69.31c2.49-2.35,5-4.63,7.4-7.13.55-.59,1.09-1.19,1.58-1.83a1.74,1.74,0,0,0,.25-2.16,1.78,1.78,0,0,0-2.22-.35,17.07,17.07,0,0,0-2.46,1.48c-6.5,4.2-12.75,8.76-19.19,13-5.06,3.36-9.89,7-15,10.29A21.74,21.74,0,0,1,54.86,86a10.35,10.35,0,0,1-4.5-.13q-7.3-1.92-14.6-3.89c-1.12-.3-2.2-.72-3.29-1.12a8.49,8.49,0,0,1-1.36-.65c-2.28-1.31-2.52-3.28-.63-5.12a9.61,9.61,0,0,1,3-1.89Q47.62,67,61.79,60.84C69.9,57.33,78,53.77,86.18,50.42c9.88-4.05,19.7-8.25,29.68-12.06a12.14,12.14,0,0,1,4.65-.86,4.72,4.72,0,0,1,5,4.24c.12.67.14,1.35.2,1.92Z" transform="translate(0 0)"/></g><path class="cls-5" d="M48,10.29,85.41,8.51s-71,103.57-71,102.81-2-41.73-2-41.73Z" transform="translate(0 0)"/><path class="cls-4" d="M93.55,10.29l37.12.4S51.89,143,51.89,142.26c0-.38-22.53,3.41-30.21-1.41C13.84,135.93,15.17,124,15.17,124Z" transform="translate(0 0)"/><path class="cls-2" d="M88.84,107.72c12.58-22,18.31-51.22,38.85-67.79l-11.1-4.6c-.84,16.83-9.54,32.09-11.39,48.81-.89,8.08,1.29,15.35,1.69,23.32.32,6.37-5.62,14.73,1.72,19.05a6.57,6.57,0,0,0,9.55-3.89c2.21-9.12,2.56-18.69,4.09-27.95s3.57-18.34,7.24-26.89l-11.88-5c-2.43,9.85-4.28,19.85-7.18,29.58-1.29,4.33-2.62,9-5.29,12.67a19.2,19.2,0,0,1-5.1,4.7q-1.52,1-3.06,1.86,8.35,4.71,5.43.24c-.11-2.16-1-4.11-.92-6.39a40,40,0,0,1,1.18-7.75c1-4.44,2.23-8.85,3.62-13.19a81,81,0,0,1,11.86-23.82l-11.88-5c-1.6,9.54-4.29,18.82-6.69,28.18-1.15,4.52-2.24,9.07-3,13.66-.72,4.06-.52,9-2.19,12.79l11.89,1.55a30.47,30.47,0,0,1,2.51-25.08c4.17-7.27-7.06-13.83-11.22-6.56a43.52,43.52,0,0,0-3.83,35.1c1.53,4.77,9.49,7,11.88,1.55,3.72-8.54,3.82-18.69,6.09-27.74,2.5-10,5.44-19.83,7.14-30,1.24-7.4-7.42-11-11.88-5C99.58,64,95.09,75.66,91.85,87.49c-2.67,9.75-7.37,27.07,2.23,34.83,4.68,3.78,9.86.56,14-2.37a33,33,0,0,0,11.36-14.25c5.44-12.5,7.45-26.31,10.7-39.47,1.68-6.82-8.87-12-11.89-5A126,126,0,0,0,110,89.44c-1.72,9.83-2,20-4.4,29.73l9.55-3.89-.53-.3,3,3.88c.38,2.76,1-1.35,1.17-2.1a31.79,31.79,0,0,0,1-5,40.69,40.69,0,0,0-.57-10.33c-1.16-7.6-1.76-14.46-.15-22.08,3.14-14.87,9.77-28.61,10.54-44,.31-6.17-7.07-7.84-11.09-4.59C96.9,48.16,90.81,78,77.62,101.16c-4.15,7.27,7.07,13.83,11.22,6.56Z" transform="translate(0 0)"/><path class="cls-2" d="M39.36,87.79c5.77-11.59,13.78-22.15,21.5-32.5,2.69-3.61-3.38-7.1-6-3.53-7.72,10.35-15.73,20.91-21.5,32.5-2,4,4,7.57,6,3.53Z" transform="translate(0 0)"/><path class="cls-2" d="M34.4,95.64C41.23,91,44.5,84.13,48.05,76.93c1.8-3.63,4-6.88,6.11-10.33,2.48-4.09,4.2-8.64,7.2-12.42,2.77-3.49-2.15-8.47-5-5-4.68,5.89-8.14,13.09-12,19.57C40.27,75.88,38,84.74,30.87,89.6c-3.7,2.52-.2,8.59,3.53,6Z" transform="translate(0 0)"/><path class="cls-2" d="M43.58,82.12c4.4-.42,7.52-5.47,9.86-8.85C57,68.18,59.11,62,61.64,56.42c1.84-4.07-4.19-7.63-6-3.53C51.94,61,48.86,70.22,41.81,76.07l2.47-1-.7.07c-4.45.41-4.49,7.41,0,7Z" transform="translate(0 0)"/><polygon class="cls-6" points="14.45 112.61 11.51 69.78 47.09 9.46 88.62 8.52 14.45 112.61"/><path class="cls-6" d="M133.94,37.5c-.38.68-67.79,104.21-67.79,104.21s25.41.26,25.66,0,44.94-63,44.94-63l2.93-48.89Z" transform="translate(0 0)"/><path class="cls-7" d="M123.7,58.07a28.18,28.18,0,0,1-7.51,19.19l-17.58,19-18.29,19.8A28.29,28.29,0,0,1,38.77,77.69L56.52,58.48,74.64,38.87a28.29,28.29,0,0,1,49.06,19.2Z" transform="translate(0 0)"/><path class="cls-8" d="M98.61,96.28l-18.29,19.8A28.29,28.29,0,0,1,38.77,77.69L56.52,58.48Z" transform="translate(0 0)"/></svg>